<svg width="26" height="26" viewBox="0 0 26 26" fill="none" xmlns="http://www.w3.org/2000/svg">
<path fill-rule="evenodd" clip-rule="evenodd" d="M7.80001 2.6C7.45522 2.6 7.12456 2.73696 6.88077 2.98076C6.63697 3.22456 6.50001 3.55522 6.50001 3.9V5.2H5.20001C4.51044 5.2 3.84912 5.47393 3.36153 5.96152C2.87393 6.44912 2.60001 7.11044 2.60001 7.8V20.8C2.60001 21.4896 2.87393 22.1509 3.36153 22.6385C3.84912 23.1261 4.51044 23.4 5.20001 23.4H20.8C21.4896 23.4 22.1509 23.1261 22.6385 22.6385C23.1261 22.1509 23.4 21.4896 23.4 20.8V7.8C23.4 7.11044 23.1261 6.44912 22.6385 5.96152C22.1509 5.47393 21.4896 5.2 20.8 5.2H19.5V3.9C19.5 3.55522 19.363 3.22456 19.1192 2.98076C18.8754 2.73696 18.5448 2.6 18.2 2.6C17.8552 2.6 17.5246 2.73696 17.2808 2.98076C17.037 3.22456 16.9 3.55522 16.9 3.9V5.2H9.10001V3.9C9.10001 3.55522 8.96304 3.22456 8.71924 2.98076C8.47545 2.73696 8.14479 2.6 7.80001 2.6ZM7.80001 9.1C7.45522 9.1 7.12456 9.23696 6.88077 9.48076C6.63697 9.72456 6.50001 10.0552 6.50001 10.4C6.50001 10.7448 6.63697 11.0754 6.88077 11.3192C7.12456 11.563 7.45522 11.7 7.80001 11.7H18.2C18.5448 11.7 18.8754 11.563 19.1192 11.3192C19.363 11.0754 19.5 10.7448 19.5 10.4C19.5 10.0552 19.363 9.72456 19.1192 9.48076C18.8754 9.23696 18.5448 9.1 18.2 9.1H7.80001Z" fill="white"/>
</svg>
