<svg width="16" height="16" viewBox="0 0 16 16" fill="none" xmlns="http://www.w3.org/2000/svg">
<path d="M8 1.33341C11.6867 1.33341 14.6667 4.32008 14.6667 8.00008C14.6667 11.6867 11.6867 14.6667 8 14.6667C4.31999 14.6667 1.33333 11.6867 1.33333 8.00008C1.33333 4.32008 4.31999 1.33341 8 1.33341ZM7.76666 4.62008C7.49333 4.62008 7.26666 4.84008 7.26666 5.12008V8.48675C7.26666 8.66008 7.36 8.82008 7.51333 8.91341L10.1267 10.4734C10.2067 10.5201 10.2933 10.5467 10.3867 10.5467C10.5533 10.5467 10.72 10.4601 10.8133 10.3001C10.9533 10.0667 10.88 9.76008 10.64 9.61341L8.26666 8.20008V5.12008C8.26666 4.84008 8.03999 4.62008 7.76666 4.62008Z" fill="white"/>
</svg>
